<svg xmlns="http://www.w3.org/2000/svg" viewBox="0 0 48 48"><defs><style>.cls-1{fill:#1e0f00;}</style></defs><title>Asset 501</title><g id="Layer_2" data-name="Layer 2"><g id="_1" data-name="1"><rect class="cls-1" y="46" width="48" height="2"/><rect class="cls-1" x="23" width="2" height="11"/><rect class="cls-1" x="38" y="31" width="2" height="4"/><rect class="cls-1" x="38" y="38" width="2" height="4"/><rect class="cls-1" x="8" y="31" width="2" height="4"/><rect class="cls-1" x="8" y="38" width="2" height="4"/><rect class="cls-1" x="20" y="3" width="8" height="2"/><path class="cls-1" d="M34,48H14a1,1,0,0,1-1-1V17a1,1,0,0,1,.49-.86l10-6a1,1,0,0,1,1,0l10,6A1,1,0,0,1,35,17V47A1,1,0,0,1,34,48ZM15,46H33V17.57l-9-5.4-9,5.4Z"/><path class="cls-1" d="M5,47H3V29a1,1,0,0,1,.49-.86l10-6,1,1.72L5,29.57Z"/><path class="cls-1" d="M45,47H43V29.57l-9.51-5.71,1-1.72,10,6A1,1,0,0,1,45,29Z"/><path class="cls-1" d="M29,48H19a1,1,0,0,1-1-1V38a6,6,0,0,1,12,0v9A1,1,0,0,1,29,48Zm-9-2h8V38a4,4,0,0,0-8,0Z"/><path class="cls-1" d="M27,29H21a1,1,0,0,1-1-1V21a4,4,0,0,1,8,0v7A1,1,0,0,1,27,29Zm-5-2h4V21a2,2,0,0,0-4,0Z"/><rect class="cls-1" x="23" y="33" width="2" height="14"/></g></g></svg>