<svg xmlns="http://www.w3.org/2000/svg" viewBox="0 0 48 48"><defs><style>.cls-1{fill:#1e0f00;}</style></defs><title>Asset 431</title><g id="Layer_2" data-name="Layer 2"><g id="_1" data-name="1"><rect class="cls-1" y="46" width="48" height="2"/><path class="cls-1" d="M17,48H3a1,1,0,0,1-1-1V5a1,1,0,0,1,.73-1l14-4A1,1,0,0,1,17.6.2,1,1,0,0,1,18,1V47A1,1,0,0,1,17,48ZM4,46H16V2.33L4,5.75Z"/><path class="cls-1" d="M31,48H17a1,1,0,0,1-1-1V13a1,1,0,0,1,.73-1l14-4a1,1,0,0,1,.87.16A1,1,0,0,1,32,9V47A1,1,0,0,1,31,48ZM18,46H30V10.33L18,13.75Z"/><path class="cls-1" d="M45,48H31a1,1,0,0,1-1-1V21a1,1,0,0,1,.73-1l14-4a1,1,0,0,1,.87.16,1,1,0,0,1,.4.8V47A1,1,0,0,1,45,48ZM32,46H44V18.33L32,21.75Z"/><rect class="cls-1" x="11" y="6" width="3" height="2"/><rect class="cls-1" x="6" y="10" width="3" height="2"/><rect class="cls-1" x="11" y="10" width="3" height="2"/><rect class="cls-1" x="6" y="14" width="3" height="2"/><rect class="cls-1" x="11" y="14" width="3" height="2"/><rect class="cls-1" x="6" y="18" width="3" height="2"/><rect class="cls-1" x="11" y="18" width="3" height="2"/><rect class="cls-1" x="6" y="22" width="3" height="2"/><rect class="cls-1" x="11" y="22" width="3" height="2"/><rect class="cls-1" x="6" y="26" width="3" height="2"/><rect class="cls-1" x="11" y="26" width="3" height="2"/><rect class="cls-1" x="6" y="30" width="3" height="2"/><rect class="cls-1" x="11" y="30" width="3" height="2"/><rect class="cls-1" x="6" y="34" width="3" height="2"/><rect class="cls-1" x="11" y="34" width="3" height="2"/><rect class="cls-1" x="6" y="38" width="3" height="2"/><rect class="cls-1" x="11" y="38" width="3" height="2"/><rect class="cls-1" x="6" y="42" width="3" height="2"/><rect class="cls-1" x="11" y="42" width="3" height="2"/><rect class="cls-1" x="25" y="14" width="3" height="2"/><rect class="cls-1" x="20" y="18" width="3" height="2"/><rect class="cls-1" x="25" y="18" width="3" height="2"/><rect class="cls-1" x="20" y="22" width="3" height="2"/><rect class="cls-1" x="25" y="22" width="3" height="2"/><rect class="cls-1" x="20" y="26" width="3" height="2"/><rect class="cls-1" x="25" y="26" width="3" height="2"/><rect class="cls-1" x="20" y="30" width="3" height="2"/><rect class="cls-1" x="25" y="30" width="3" height="2"/><rect class="cls-1" x="20" y="34" width="3" height="2"/><rect class="cls-1" x="25" y="34" width="3" height="2"/><rect class="cls-1" x="20" y="38" width="3" height="2"/><rect class="cls-1" x="25" y="38" width="3" height="2"/><rect class="cls-1" x="20" y="42" width="3" height="2"/><rect class="cls-1" x="25" y="42" width="3" height="2"/><rect class="cls-1" x="39" y="22" width="3" height="2"/><rect class="cls-1" x="34" y="26" width="3" height="2"/><rect class="cls-1" x="39" y="26" width="3" height="2"/><rect class="cls-1" x="34" y="30" width="3" height="2"/><rect class="cls-1" x="39" y="30" width="3" height="2"/><rect class="cls-1" x="34" y="34" width="3" height="2"/><rect class="cls-1" x="39" y="34" width="3" height="2"/><rect class="cls-1" x="34" y="38" width="3" height="2"/><rect class="cls-1" x="39" y="38" width="3" height="2"/><rect class="cls-1" x="34" y="42" width="3" height="2"/><rect class="cls-1" x="39" y="42" width="3" height="2"/></g></g></svg>