<svg xmlns="http://www.w3.org/2000/svg" viewBox="0 0 48 48"><defs><style>.cls-1{fill:#1e0f00;}</style></defs><title>Asset 381</title><g id="Layer_2" data-name="Layer 2"><g id="_1" data-name="1"><rect class="cls-1" y="46" width="48" height="2"/><rect class="cls-1" y="46" width="48" height="2"/><rect class="cls-1" x="2" y="20" width="44" height="2"/><rect class="cls-1" x="9" y="26" width="14" height="2"/><path class="cls-1" d="M43,48H5a1,1,0,0,1-1-1V21a1,1,0,0,1,1-1H43a1,1,0,0,1,1,1V47A1,1,0,0,1,43,48ZM6,46H42V22H6Z"/><path class="cls-1" d="M21,48H11a1,1,0,0,1-1-1V27a1,1,0,0,1,1-1H21a1,1,0,0,1,1,1V47A1,1,0,0,1,21,48Zm-9-2h8V28H12Z"/><path class="cls-1" d="M37,41H27a1,1,0,0,1-1-1V27a1,1,0,0,1,1-1H37a1,1,0,0,1,1,1V40A1,1,0,0,1,37,41Zm-9-2h8V28H28Z"/><path class="cls-1" d="M37,17H11a1,1,0,0,1-1-1V1a1,1,0,0,1,1-1H37a1,1,0,0,1,1,1V16A1,1,0,0,1,37,17ZM12,15H36V2H12Z"/><path class="cls-1" d="M32,22H16a1,1,0,0,1-1-1V16a1,1,0,0,1,1-1H32a1,1,0,0,1,1,1v5A1,1,0,0,1,32,22ZM17,20H31V17H17Z"/><path class="cls-1" d="M24,11a1,1,0,0,1-.57-.18l-13-9A1,1,0,0,1,10.05.7,1,1,0,0,1,11,0H37a1,1,0,0,1,1,.7,1,1,0,0,1-.38,1.12l-13,9A1,1,0,0,1,24,11ZM14.2,2,24,8.78,33.8,2Z"/><rect class="cls-1" x="17" y="37" width="2" height="2"/><rect class="cls-1" x="27" y="33" width="10" height="2"/></g></g></svg>