<svg xmlns="http://www.w3.org/2000/svg" viewBox="0 0 48 48"><defs><style>.cls-1{fill:#1e0f00;}</style></defs><title>Asset 561</title><g id="Layer_2" data-name="Layer 2"><g id="_1" data-name="1"><rect class="cls-1" y="46" width="48" height="2"/><rect class="cls-1" x="40" y="30" width="2" height="2"/><rect class="cls-1" x="36" y="30" width="2" height="2"/><rect class="cls-1" x="40" y="34" width="2" height="2"/><rect class="cls-1" x="36" y="34" width="2" height="2"/><rect class="cls-1" x="40" y="38" width="2" height="2"/><rect class="cls-1" x="40" y="42" width="2" height="2"/><rect class="cls-1" x="36" y="38" width="2" height="2"/><rect class="cls-1" x="10" y="30" width="2" height="2"/><rect class="cls-1" x="6" y="30" width="2" height="2"/><rect class="cls-1" x="40" y="26" width="2" height="2"/><rect class="cls-1" x="36" y="26" width="2" height="2"/><rect class="cls-1" x="10" y="26" width="2" height="2"/><rect class="cls-1" x="6" y="26" width="2" height="2"/><rect class="cls-1" x="10" y="34" width="2" height="2"/><rect class="cls-1" x="6" y="34" width="2" height="2"/><rect class="cls-1" x="10" y="38" width="2" height="2"/><rect class="cls-1" x="6" y="42" width="2" height="2"/><rect class="cls-1" x="6" y="38" width="2" height="2"/><path class="cls-1" d="M34,12H14a1,1,0,0,1-1-1,11,11,0,0,1,22,0A1,1,0,0,1,34,12ZM15.06,10H32.94a9,9,0,0,0-17.88,0Z"/><rect class="cls-1" x="12" y="10" width="24" height="2"/><path class="cls-1" d="M33,43H15a1,1,0,0,1-1-1V11a1,1,0,0,1,1-1H33a1,1,0,0,1,1,1V42A1,1,0,0,1,33,43ZM16,41H32V12H16Z"/><path class="cls-1" d="M15,24H1a1,1,0,0,1-1-1,9,9,0,0,1,9-9h6a1,1,0,0,1,1,1v8A1,1,0,0,1,15,24ZM2.07,22H14V16H9A7,7,0,0,0,2.07,22Z"/><path class="cls-1" d="M4,47H2V23a1,1,0,0,1,1-1H15v2H4Z"/><path class="cls-1" d="M47,24H33a1,1,0,0,1-1-1V15a1,1,0,0,1,1-1h6a9,9,0,0,1,9,9A1,1,0,0,1,47,24ZM34,22H45.93A7,7,0,0,0,39,16H34Z"/><path class="cls-1" d="M37,48H11a1,1,0,0,1-1-1V46a5,5,0,0,1,5-5H33a5,5,0,0,1,5,5v1A1,1,0,0,1,37,48ZM12,46H36a3,3,0,0,0-3-3H15A3,3,0,0,0,12,46Z"/><path class="cls-1" d="M46,47H44V24H33V22H45a1,1,0,0,1,1,1Z"/><path class="cls-1" d="M27,43H21a1,1,0,0,1-1-1V11a1,1,0,0,1,1-1h6a1,1,0,0,1,1,1V42A1,1,0,0,1,27,43Zm-5-2h4V12H22Z"/></g></g></svg>