<svg xmlns="http://www.w3.org/2000/svg" viewBox="0 0 48 47.97"><defs><style>.cls-1{fill:#1e0f00;}</style></defs><title>Asset 371</title><g id="Layer_2" data-name="Layer 2"><g id="_1" data-name="1"><rect class="cls-1" y="45.97" width="48" height="2"/><path class="cls-1" d="M45,48H3a1,1,0,0,1-1-1V23a1,1,0,0,1,.41-.81c.13-.09,13.45-10,20.74-21.72a1,1,0,0,1,1.7,0c7.29,11.7,20.61,21.63,20.74,21.72A1,1,0,0,1,46,23V47A1,1,0,0,1,45,48ZM4,46H44V23.47C41.74,21.74,30.93,13.23,24,2.81,17.07,13.23,6.26,21.74,4,23.47Z"/><path class="cls-1" d="M36,48H12a1,1,0,0,1-.8-1.6C22.08,31.92,23,9.16,23,8.93a1,1,0,0,1,2,0c0,.23.92,23,11.8,37.44A1,1,0,0,1,36,48ZM14,46h20.1C28,37.08,25.24,26,24,18.29,22.76,26,20,37.08,14,46Z"/><rect class="cls-1" x="23" y="0.97" width="2" height="8"/><path class="cls-1" d="M36.87,47.45l-1.74-1,4.61-8.3C36.64,35.3,23,21.91,23,9h2c0,13.38,16.5,28.1,16.66,28.25a1,1,0,0,1,.21,1.23Z"/><path class="cls-1" d="M11.13,47.45l-5-9a1,1,0,0,1,.21-1.23C6.5,37.07,23,22.35,23,9h2C25,21.91,11.36,35.3,8.26,38.18l4.61,8.3Z"/></g></g></svg>