<svg xmlns="http://www.w3.org/2000/svg" viewBox="0 0 48 48"><defs><style>.cls-1{fill:#1e0f00;}</style></defs><title>Asset 591</title><g id="Layer_2" data-name="Layer 2"><g id="_1" data-name="1"><path class="cls-1" d="M43,47H41V2H19V12H17V1a1,1,0,0,1,1-1H42a1,1,0,0,1,1,1Z"/><rect class="cls-1" y="46" width="48" height="2"/><rect class="cls-1" x="16" width="28" height="2"/><rect class="cls-1" x="29" y="41" width="2" height="2"/><rect class="cls-1" x="33" y="41" width="2" height="2"/><rect class="cls-1" x="25" y="41" width="2" height="2"/><rect class="cls-1" x="29" y="37" width="2" height="2"/><rect class="cls-1" x="33" y="37" width="2" height="2"/><rect class="cls-1" x="25" y="37" width="2" height="2"/><rect class="cls-1" x="29" y="33" width="2" height="2"/><rect class="cls-1" x="33" y="33" width="2" height="2"/><rect class="cls-1" x="25" y="33" width="2" height="2"/><rect class="cls-1" x="29" y="29" width="2" height="2"/><rect class="cls-1" x="33" y="29" width="2" height="2"/><rect class="cls-1" x="25" y="29" width="2" height="2"/><rect class="cls-1" x="29" y="25" width="2" height="2"/><rect class="cls-1" x="33" y="25" width="2" height="2"/><rect class="cls-1" x="25" y="25" width="2" height="2"/><rect class="cls-1" x="29" y="21" width="2" height="2"/><rect class="cls-1" x="33" y="21" width="2" height="2"/><rect class="cls-1" x="25" y="21" width="2" height="2"/><rect class="cls-1" x="29" y="17" width="2" height="2"/><rect class="cls-1" x="33" y="17" width="2" height="2"/><rect class="cls-1" x="25" y="17" width="2" height="2"/><rect class="cls-1" x="29" y="13" width="2" height="2"/><rect class="cls-1" x="33" y="13" width="2" height="2"/><rect class="cls-1" x="29" y="9" width="2" height="2"/><rect class="cls-1" x="33" y="9" width="2" height="2"/><rect class="cls-1" x="25" y="9" width="2" height="2"/><rect class="cls-1" x="29" y="5" width="2" height="2"/><rect class="cls-1" x="33" y="5" width="2" height="2"/><rect class="cls-1" x="37" y="41" width="2" height="2"/><rect class="cls-1" x="37" y="37" width="2" height="2"/><rect class="cls-1" x="37" y="33" width="2" height="2"/><rect class="cls-1" x="37" y="29" width="2" height="2"/><rect class="cls-1" x="37" y="25" width="2" height="2"/><rect class="cls-1" x="37" y="21" width="2" height="2"/><rect class="cls-1" x="37" y="17" width="2" height="2"/><rect class="cls-1" x="37" y="13" width="2" height="2"/><rect class="cls-1" x="37" y="9" width="2" height="2"/><rect class="cls-1" x="37" y="5" width="2" height="2"/><rect class="cls-1" x="25" y="5" width="2" height="2"/><rect class="cls-1" x="21" y="9" width="2" height="2"/><rect class="cls-1" x="21" y="5" width="2" height="2"/><path class="cls-1" d="M26,48H6a1,1,0,0,1-1-1V14a1,1,0,0,1,1-1H26a1,1,0,0,1,1,1V47A1,1,0,0,1,26,48ZM7,46H25V15H7Z"/><rect class="cls-1" x="4" y="13" width="24" height="2"/><rect class="cls-1" x="9" y="17" width="2" height="26"/><rect class="cls-1" x="13" y="17" width="2" height="26"/><rect class="cls-1" x="17" y="17" width="2" height="26"/><rect class="cls-1" x="21" y="17" width="2" height="26"/></g></g></svg>