<svg xmlns="http://www.w3.org/2000/svg" viewBox="0 0 48 48"><defs><style>.cls-1{fill:#1e0f00;}</style></defs><title>Asset 551</title><g id="Layer_2" data-name="Layer 2"><g id="_1" data-name="1"><path class="cls-1" d="M45,48H3a1,1,0,0,1-1-1V42a1,1,0,0,1,1-1H45a1,1,0,0,1,1,1v5A1,1,0,0,1,45,48ZM4,46H44V43H4Z"/><rect class="cls-1" x="36" y="20" width="2" height="20"/><rect class="cls-1" x="30" y="20" width="2" height="7"/><rect class="cls-1" x="30" y="33" width="2" height="7"/><rect class="cls-1" x="42" y="20" width="2" height="20"/><rect class="cls-1" x="10" y="20" width="2" height="20"/><rect class="cls-1" x="4" y="20" width="2" height="20"/><path class="cls-1" d="M45,19H3a1,1,0,0,1-1-1V13a1,1,0,0,1,1-1H45a1,1,0,0,1,1,1v5A1,1,0,0,1,45,19ZM4,17H44V14H4Z"/><path class="cls-1" d="M47,14H1a1,1,0,0,1-1-.76,1,1,0,0,1,.51-1.13l23-12a1,1,0,0,1,.92,0l23,12A1,1,0,0,1,48,13.24,1,1,0,0,1,47,14ZM5.08,12H42.92L24,2.13Z"/><rect class="cls-1" y="46" width="48" height="2"/><path class="cls-1" d="M24,37a4,4,0,0,1-4-4h2a2,2,0,1,0,2-2,4,4,0,1,1,4-4H26a2,2,0,1,0-2,2,4,4,0,0,1,0,8Z"/><rect class="cls-1" x="23" y="36" width="2" height="4"/><rect class="cls-1" x="23" y="20" width="2" height="4"/><rect class="cls-1" x="30" y="29" width="2" height="2"/><rect class="cls-1" x="16" y="20" width="2" height="7"/><rect class="cls-1" x="16" y="33" width="2" height="7"/><rect class="cls-1" x="16" y="29" width="2" height="2"/></g></g></svg>