<svg xmlns="http://www.w3.org/2000/svg" viewBox="0 0 48 48"><defs><style>.cls-1{fill:#1e0f00;}</style></defs><title>Asset 291</title><g id="Layer_2" data-name="Layer 2"><g id="_1" data-name="1"><rect class="cls-1" y="46" width="48" height="2"/><path class="cls-1" d="M36,32H12a1,1,0,0,1-1-1V7a1,1,0,0,1,1-1H36a1,1,0,0,1,1,1V31A1,1,0,0,1,36,32ZM13,30H35V8H13Z"/><path class="cls-1" d="M39,8H9a1,1,0,0,1-.77-1.64l5-6A1,1,0,0,1,14,0H34a1,1,0,0,1,.77.36l5,6A1,1,0,0,1,39,8ZM11.14,6H36.86L33.53,2H14.47Z"/><path class="cls-1" d="M12,32H1a1,1,0,0,1-.77-1.64l5-6A1,1,0,0,1,6,24h6a1,1,0,0,1,1,1v6A1,1,0,0,1,12,32ZM3.14,30H11V26H6.47Z"/><path class="cls-1" d="M47,32H36a1,1,0,0,1-1-1V25a1,1,0,0,1,1-1h6a1,1,0,0,1,.77.36l5,6A1,1,0,0,1,47,32ZM37,30h7.86l-3.33-4H37Z"/><path class="cls-1" d="M45,48H3a1,1,0,0,1-1-1V31a1,1,0,0,1,1-1H45a1,1,0,0,1,1,1V47A1,1,0,0,1,45,48ZM4,46H44V32H4Z"/><path class="cls-1" d="M27,48H21a1,1,0,0,1-1-1V38a4,4,0,0,1,8,0v9A1,1,0,0,1,27,48Zm-5-2h4V38a2,2,0,0,0-4,0Z"/><path class="cls-1" d="M15,48H9a1,1,0,0,1-1-1V38a4,4,0,0,1,8,0v9A1,1,0,0,1,15,48Zm-5-2h4V38a2,2,0,0,0-4,0Z"/><path class="cls-1" d="M39,48H33a1,1,0,0,1-1-1V38a4,4,0,0,1,8,0v9A1,1,0,0,1,39,48Zm-5-2h4V38a2,2,0,0,0-4,0Z"/><path class="cls-1" d="M24,27a8,8,0,1,1,8-8A8,8,0,0,1,24,27Zm0-14a6,6,0,1,0,6,6A6,6,0,0,0,24,13Z"/><path class="cls-1" d="M28,20H24a1,1,0,0,1-1-1V15h2v3h3Z"/></g></g></svg>