<svg xmlns="http://www.w3.org/2000/svg" viewBox="0 0 48 48"><defs><style>.cls-1{fill:#1e0f00;}</style></defs><title>Asset 11</title><g id="Layer_2" data-name="Layer 2"><g id="_1" data-name="1"><rect class="cls-1" y="46" width="48" height="2"/><path class="cls-1" d="M19,48H3a1,1,0,0,1-1-1V21a1,1,0,0,1,1-1H19a1,1,0,0,1,1,1V47A1,1,0,0,1,19,48ZM4,46H18V22H4Z"/><path class="cls-1" d="M18,22H4a1,1,0,0,1-1-1V15a1,1,0,0,1,1-1H18a1,1,0,0,1,1,1v6A1,1,0,0,1,18,22ZM5,20H17V16H5Z"/><path class="cls-1" d="M17,16H5a1,1,0,0,1-1-1C4,11.23,7,4,11,4s7,7.23,7,11A1,1,0,0,1,17,16ZM6.07,14h9.86C15.5,10.76,13.19,6,11,6S6.5,10.76,6.07,14Z"/><rect class="cls-1" x="6" y="25" width="2" height="4"/><rect class="cls-1" x="6" y="32" width="2" height="4"/><rect class="cls-1" x="6" y="39" width="2" height="4"/><rect class="cls-1" x="14" y="25" width="2" height="4"/><rect class="cls-1" x="14" y="32" width="2" height="4"/><rect class="cls-1" x="14" y="39" width="2" height="4"/><rect class="cls-1" x="10" y="25" width="2" height="4"/><rect class="cls-1" x="10" y="32" width="2" height="4"/><rect class="cls-1" x="10" y="39" width="2" height="4"/><rect class="cls-1" x="10" width="2" height="5"/><path class="cls-1" d="M45,48H29a1,1,0,0,1-1-1V21a1,1,0,0,1,1-1H45a1,1,0,0,1,1,1V47A1,1,0,0,1,45,48ZM30,46H44V22H30Z"/><path class="cls-1" d="M29,48H19a1,1,0,0,1-1-1V29a1,1,0,0,1,1-1H29a1,1,0,0,1,1,1V47A1,1,0,0,1,29,48Zm-9-2h8V30H20Z"/><path class="cls-1" d="M44,22H30a1,1,0,0,1-1-1V15a1,1,0,0,1,1-1H44a1,1,0,0,1,1,1v6A1,1,0,0,1,44,22ZM31,20H43V16H31Z"/><path class="cls-1" d="M43,16H31a1,1,0,0,1-1-1c0-3.77,3-11,7-11s7,7.23,7,11A1,1,0,0,1,43,16ZM32.07,14h9.86C41.5,10.76,39.19,6,37,6S32.5,10.76,32.07,14Z"/><rect class="cls-1" x="32" y="25" width="2" height="4"/><rect class="cls-1" x="32" y="32" width="2" height="4"/><rect class="cls-1" x="32" y="39" width="2" height="4"/><rect class="cls-1" x="40" y="25" width="2" height="4"/><rect class="cls-1" x="40" y="32" width="2" height="4"/><rect class="cls-1" x="40" y="39" width="2" height="4"/><rect class="cls-1" x="36" y="25" width="2" height="4"/><rect class="cls-1" x="36" y="32" width="2" height="4"/><rect class="cls-1" x="36" y="39" width="2" height="4"/><rect class="cls-1" x="36" width="2" height="5"/></g></g></svg>