<svg xmlns="http://www.w3.org/2000/svg" viewBox="0 0 48 48"><defs><style>.cls-1{fill:#1e0f00;}</style></defs><title>Asset 211</title><g id="Layer_2" data-name="Layer 2"><g id="_1" data-name="1"><rect class="cls-1" y="46" width="48" height="2"/><path class="cls-1" d="M38,48H10a1,1,0,0,1-1-1V19a1,1,0,0,1,1-1H38a1,1,0,0,1,1,1V47A1,1,0,0,1,38,48ZM11,46H37V20H11Z"/><path class="cls-1" d="M40,20H8a1,1,0,0,1-.45-1.89l16-8a1,1,0,0,1,.9,0l16,8A1,1,0,0,1,40,20ZM12.24,18H35.76L24,12.12Z"/><path class="cls-1" d="M21,31H15a1,1,0,0,1-1-1V27a4,4,0,0,1,8,0v3A1,1,0,0,1,21,31Zm-5-2h4V27a2,2,0,0,0-4,0Z"/><path class="cls-1" d="M33,31H27a1,1,0,0,1-1-1V27a4,4,0,0,1,8,0v3A1,1,0,0,1,33,31Zm-5-2h4V27a2,2,0,0,0-4,0Z"/><path class="cls-1" d="M27,31H21a1,1,0,0,1-1-1V27a4,4,0,0,1,8,0v3A1,1,0,0,1,27,31Zm-5-2h4V27a2,2,0,0,0-4,0Z"/><path class="cls-1" d="M27,48H21a1,1,0,0,1-1-1V38a4,4,0,0,1,8,0v9A1,1,0,0,1,27,48Zm-5-2h4V38a2,2,0,0,0-4,0Z"/><path class="cls-1" d="M33,42H27a1,1,0,0,1-1-1V38a4,4,0,0,1,8,0v3A1,1,0,0,1,33,42Zm-5-2h4V38a2,2,0,0,0-4,0Z"/><path class="cls-1" d="M21,42H15a1,1,0,0,1-1-1V38a4,4,0,0,1,8,0v3A1,1,0,0,1,21,42Zm-5-2h4V38a2,2,0,0,0-4,0Z"/><path class="cls-1" d="M4,47H2V9A1,1,0,0,1,3,8H15a1,1,0,0,1,1,1v6H14V10H4Z"/><path class="cls-1" d="M17,10H1a1,1,0,0,1-.92-.62A1,1,0,0,1,.29,8.29l8-8a1,1,0,0,1,1.42,0l8,8a1,1,0,0,1,.21,1.09A1,1,0,0,1,17,10ZM3.41,8H14.59L9,2.41Z"/><path class="cls-1" d="M46,47H44V10H34v5H32V9a1,1,0,0,1,1-1H45a1,1,0,0,1,1,1Z"/><path class="cls-1" d="M47,10H31a1,1,0,0,1-.92-.62,1,1,0,0,1,.21-1.09l8-8a1,1,0,0,1,1.42,0l8,8a1,1,0,0,1,.21,1.09A1,1,0,0,1,47,10ZM33.41,8H44.59L39,2.41Z"/></g></g></svg>