<svg xmlns="http://www.w3.org/2000/svg" viewBox="0 0 48 48"><defs><style>.cls-1{fill:#1e0f00;}</style></defs><title>Asset 31</title><g id="Layer_2" data-name="Layer 2"><g id="_1" data-name="1"><rect class="cls-1" y="46" width="48" height="2"/><path class="cls-1" d="M45,48H3a1,1,0,0,1-1-1V9H4V46H44V9h2V47A1,1,0,0,1,45,48Z"/><path class="cls-1" d="M39,48H9a1,1,0,0,1-1-1V21a1,1,0,0,1,1-1H39a1,1,0,0,1,1,1V47A1,1,0,0,1,39,48ZM10,46H38V22H10Z"/><path class="cls-1" d="M25,45H23V38H15v7H13V37a1,1,0,0,1,1-1H24a1,1,0,0,1,1,1Z"/><path class="cls-1" d="M35,45H33V38H24V36H34a1,1,0,0,1,1,1Z"/><path class="cls-1" d="M30,35H28V28H20v7H18V27a1,1,0,0,1,1-1H29a1,1,0,0,1,1,1Z"/><path class="cls-1" d="M38,17H10a2,2,0,0,1-2-2V12a2,2,0,0,1,2-2H38a2,2,0,0,1,2,2v3A2,2,0,0,1,38,17ZM10,12v3H38V12Z"/><path class="cls-1" d="M29,17H19a1,1,0,0,1-1-1V11a1,1,0,0,1,1-1H29a1,1,0,0,1,1,1v5A1,1,0,0,1,29,17Zm-9-2h8V12H20Z"/><path class="cls-1" d="M46.67,9.94,24,2.06,1.33,9.94.67,8.06l23-8a.94.94,0,0,1,.66,0l23,8Z"/><rect class="cls-1" x="23" y="27" width="2" height="4"/><rect class="cls-1" x="18" y="37" width="2" height="4"/><rect class="cls-1" x="28" y="37" width="2" height="4"/></g></g></svg>